<?xml version="1.0" standalone="no"?>
<!DOCTYPE svg PUBLIC "-//W3C//DTD SVG 20010904//EN"
 "http://www.w3.org/TR/2001/REC-SVG-20010904/DTD/svg10.dtd">
<svg version="1.0" xmlns="http://www.w3.org/2000/svg"
 width="512.000000pt" height="512.000000pt" viewBox="0 0 512.000000 512.000000"
 preserveAspectRatio="xMidYMid meet">
<metadata>
Created by potrace 1.14, written by Peter Selinger 2001-2017
</metadata>
<g transform="translate(0.000000,512.000000) scale(0.100000,-0.100000)"
fill="#000000" stroke="none">
<path d="M2387 4799 c-9 -6 -22 -7 -27 -4 -6 3 -10 1 -10 -6 0 -7 -3 -9 -6 -6
-4 3 -16 1 -28 -5 -11 -7 -24 -11 -28 -10 -5 1 -8 -2 -8 -8 0 -5 -7 -10 -16
-10 -16 0 -137 -78 -142 -92 -2 -4 -8 -8 -14 -8 -11 0 -104 -93 -126 -126 -57
-86 -72 -111 -72 -126 0 -9 -3 -18 -8 -20 -9 -4 -42 -107 -42 -131 0 -10 -4
-17 -8 -17 -4 0 -7 -15 -7 -32 1 -18 -3 -39 -8 -45 -6 -9 -5 -13 3 -13 10 0
10 -3 1 -14 -9 -11 -9 -20 -2 -35 6 -11 7 -22 3 -25 -7 -4 -9 -91 -2 -91 1 0
4 -13 6 -30 3 -16 8 -32 12 -35 4 -3 9 -14 10 -25 2 -11 13 -32 23 -46 23 -32
24 -58 4 -65 -8 -4 -15 -13 -15 -21 0 -8 -3 -12 -7 -10 -5 2 -18 -6 -31 -19
-12 -13 -20 -24 -16 -24 3 0 -11 -16 -30 -35 -20 -19 -33 -35 -30 -35 4 0 -6
-12 -21 -27 -15 -16 -38 -44 -50 -63 -13 -19 -32 -46 -44 -60 -11 -14 -25 -30
-31 -37 -5 -7 -10 -15 -10 -17 0 -5 -18 -30 -45 -60 -6 -6 -21 -32 -34 -58
-13 -26 -31 -55 -40 -65 -10 -10 -18 -20 -18 -23 -6 -21 -19 -47 -30 -58 -7
-7 -13 -20 -13 -28 0 -8 -4 -14 -9 -14 -7 0 -22 -36 -20 -49 1 -2 -6 -8 -15
-13 -9 -5 -14 -13 -11 -19 4 -5 1 -9 -5 -9 -7 0 -10 -7 -6 -15 3 -8 1 -15 -5
-15 -10 0 -34 -48 -31 -62 1 -5 -3 -8 -9 -8 -5 0 -7 -4 -4 -10 3 -5 1 -10 -5
-10 -6 0 -9 -4 -5 -9 3 -5 -2 -17 -11 -25 -8 -9 -13 -16 -9 -16 3 0 0 -10 -7
-22 -7 -13 -13 -25 -13 -28 -10 -39 -19 -60 -28 -60 -6 0 -8 -3 -5 -6 3 -3 -3
-29 -14 -57 -21 -58 -28 -79 -35 -119 -3 -16 -9 -28 -14 -28 -4 0 -6 -9 -4
-20 2 -11 0 -22 -4 -24 -7 -4 -11 -39 -13 -106 0 -8 -5 -21 -11 -27 -5 -7 -6
-13 -1 -13 5 0 10 -35 11 -78 3 -101 6 -132 16 -132 5 0 5 -4 2 -10 -3 -5 -3
-16 2 -22 4 -7 8 -15 9 -18 5 -29 21 -71 35 -97 10 -17 15 -34 12 -37 -3 -3 2
-8 11 -12 9 -3 14 -10 11 -15 -6 -8 15 -36 74 -98 19 -20 35 -38 35 -41 1 -3
4 -4 8 -3 4 2 10 -6 13 -17 4 -11 13 -20 21 -20 8 0 14 -8 14 -17 0 -9 3 -14
6 -10 3 3 19 -7 34 -24 16 -16 35 -30 42 -31 7 -2 20 -10 28 -18 8 -8 31 -26
50 -39 46 -31 62 -62 41 -82 -9 -8 -20 -14 -26 -15 -25 -1 -123 -27 -150 -40
-37 -17 -93 -54 -82 -54 5 0 -5 -11 -21 -25 -36 -30 -82 -121 -100 -195 -9
-39 -3 -173 8 -187 2 -2 3 -6 4 -10 6 -27 52 -111 58 -107 4 3 8 -1 8 -8 0 -7
14 -22 30 -33 17 -11 33 -29 35 -40 11 -46 12 -71 3 -82 -7 -9 -7 -13 1 -13 7
0 9 -5 6 -10 -4 -6 -8 -52 -10 -103 -2 -51 -7 -112 -11 -137 -4 -25 -7 -55 -8
-67 0 -13 -4 -23 -7 -23 -4 0 -10 -15 -14 -32 -4 -18 -8 -35 -9 -38 -1 -3 -9
-22 -19 -43 -21 -43 -20 -46 14 -53 27 -5 32 -5 614 -4 226 0 698 1 1050 0
352 0 648 2 657 3 23 4 28 9 34 38 3 13 6 29 7 34 2 6 7 16 11 24 6 9 5 12 0
8 -6 -3 -10 27 -10 78 l1 83 26 -15 c18 -11 25 -22 22 -34 -3 -11 -1 -19 3
-19 5 0 10 -15 11 -32 4 -51 6 -58 15 -58 5 0 7 -4 3 -9 -3 -6 2 -14 11 -19 9
-5 14 -11 13 -13 -2 -2 5 -18 15 -34 19 -33 23 -34 143 -39 37 -1 64 2 67 8 3
7 5 7 5 1 1 -10 134 -10 178 0 25 6 26 23 3 43 -13 12 -13 13 0 6 9 -4 7 2 -6
17 -27 31 -68 99 -59 99 3 0 -1 7 -9 16 -9 8 -16 24 -16 35 0 10 -4 19 -9 19
-5 0 -11 14 -15 30 -8 40 -8 41 -22 69 -7 14 -11 28 -8 33 3 4 0 8 -7 8 -7 0
-9 3 -6 7 4 3 2 12 -4 20 -6 7 -8 13 -4 13 4 0 2 6 -4 14 -6 8 -11 18 -10 22
2 5 -4 29 -11 54 -16 54 -18 62 -25 118 -4 39 -1 47 25 74 17 16 30 33 30 38
0 5 8 13 17 19 10 5 15 13 11 16 -4 4 0 14 8 22 8 8 12 18 9 23 -3 4 2 11 11
14 8 3 12 10 9 16 -3 5 -1 10 5 10 7 0 10 7 7 15 -4 8 -2 17 4 20 5 4 7 11 4
16 -4 5 -2 9 2 9 9 0 10 116 1 126 -4 3 -4 17 -2 30 2 13 0 24 -5 24 -7 0 -20
42 -21 65 0 3 -4 11 -10 18 -6 6 -24 34 -42 60 -29 46 -88 112 -88 100 0 -3
-8 4 -19 15 -10 12 -22 22 -26 22 -4 0 -20 9 -36 21 -16 11 -38 21 -49 22 -11
1 -20 5 -20 10 0 4 -4 5 -10 2 -5 -3 -10 -1 -10 5 0 6 -4 8 -10 5 -5 -3 -19
-1 -30 5 -14 7 -20 7 -20 0 0 -6 -9 -5 -22 4 -13 7 -32 12 -42 10 -29 -4 -39
6 -24 24 11 13 11 15 -2 8 -14 -8 12 22 53 62 9 9 17 22 17 29 0 7 5 13 10 13
6 0 10 6 10 13 0 7 9 23 20 35 11 12 20 27 20 34 0 8 7 23 15 34 8 12 11 24 8
28 -3 3 -1 6 6 6 7 0 10 4 6 9 -3 6 0 13 7 18 7 4 14 17 15 28 5 41 9 54 23
71 12 14 12 16 1 10 -10 -7 -11 -3 -5 15 4 13 8 34 9 46 0 11 3 19 6 17 7 -4
11 37 11 131 -1 98 -5 165 -12 165 -3 0 -6 17 -7 38 -4 83 -8 112 -15 112 -4
0 -5 9 -3 20 2 11 -1 22 -6 25 -5 4 -7 11 -3 16 3 5 0 16 -6 24 -7 8 -10 21
-7 30 4 8 2 17 -4 20 -5 4 -7 11 -4 16 4 5 1 9 -5 9 -6 0 -9 4 -6 8 3 5 -2 21
-9 36 -8 16 -13 32 -10 36 3 5 -2 16 -11 24 -8 9 -12 16 -8 16 5 0 3 5 -3 11
-6 6 -9 18 -6 25 3 8 -1 14 -8 14 -7 0 -9 3 -6 6 3 4 1 16 -5 28 -7 11 -13 23
-13 26 0 3 -9 20 -18 37 -10 18 -17 34 -16 35 1 2 -9 21 -22 43 -32 53 -54 93
-76 135 -10 19 -24 39 -31 43 -7 5 -10 12 -7 18 4 5 2 9 -2 9 -5 0 -16 12 -25
28 -9 15 -29 39 -43 55 -14 15 -22 27 -18 27 4 0 -3 7 -15 16 -12 8 -20 20
-17 25 4 5 -2 9 -11 9 -10 0 -15 3 -11 6 5 5 -20 38 -65 85 -9 10 -14 20 -10
23 3 3 -2 6 -12 6 -9 0 -15 3 -13 8 4 9 -40 52 -47 44 -3 -3 -6 2 -6 11 0 10
-7 17 -16 17 -8 0 -12 5 -9 10 3 6 2 10 -3 10 -11 0 -66 50 -55 50 4 1 -5 8
-22 17 -16 9 -36 24 -43 35 -7 10 -18 16 -23 13 -5 -4 -9 1 -9 10 0 9 -4 14
-9 11 -5 -4 -11 -3 -13 1 -1 5 -23 21 -48 38 -25 16 -47 32 -50 35 -10 10 -65
41 -82 47 -10 3 -18 9 -18 14 0 5 -7 9 -15 9 -9 0 -18 7 -22 16 -3 8 -11 13
-18 10 -8 -3 -16 2 -19 10 -3 9 -11 12 -18 8 -7 -4 -10 -4 -6 1 4 4 3 14 -3
22 -9 10 -8 13 0 13 7 0 10 4 6 9 -3 5 -1 12 5 16 6 4 8 10 5 15 -3 5 0 21 6
37 13 33 17 53 23 114 3 25 6 49 7 55 1 5 1 11 0 14 -1 3 -4 28 -5 55 -5 67
-25 165 -35 165 -4 0 -8 6 -8 13 0 19 -54 108 -69 114 -8 3 -14 12 -14 20 0 8
-4 12 -9 8 -5 -3 -17 5 -25 17 -9 12 -19 19 -22 15 -4 -4 -15 3 -25 15 -11 11
-19 18 -19 14 0 -3 -14 1 -31 9 -17 9 -44 17 -60 17 -16 1 -29 5 -29 10 0 5
-9 4 -19 -2 -12 -6 -21 -6 -23 -1 -2 6 -10 6 -21 0z"/>
</g>
</svg>
